<svg xmlns="http://www.w3.org/2000/svg" fill="none" viewBox="0 0 80 80">
  <path fill="#EB686B" d="M0 0h80v80H0z"/>
  <path fill="#fff" d="M22.5 27.3h15.2c1.4 0 2.3-.5 2.8-1.4h.2l1.7 8.2-.2.1c-2.2-3.4-4.7-6.1-7.6-6.1-1.6 0-2.4.7-2.4 2.3V54c0 1.6.6 2.8 2.2 3.8v.1h-8.7v-.1c1.7-1 2.3-2.2 2.3-3.8V30.4c0-1.6-.7-2.3-2.5-2.3-2.8 0-5.3 2.7-7.5 6.1l-.2-.1 1.7-8.2h.2c.5.9 1.4 1.4 2.8 1.4ZM57.1 58H41.8v-.1c1.4-.6 2.4-1.8 2.4-3.8v-23c0-1.8-.8-3.1-2.4-3.7v-.1h9c-1.6.7-2.5 2-2.5 3.8v22.1c0 2.7 1.2 4 4 4 4.3 0 7-2.7 9.5-6.4h.1l-1.6 8.6h-.1c-.6-1-1.7-1.4-3.1-1.4Z"/>
</svg>
