<?xml version="1.0" standalone="no"?>
<!DOCTYPE svg PUBLIC "-//W3C//DTD SVG 20010904//EN"
 "http://www.w3.org/TR/2001/REC-SVG-20010904/DTD/svg10.dtd">
<svg version="1.0" xmlns="http://www.w3.org/2000/svg"
 width="700.000000pt" height="700.000000pt" viewBox="0 0 700.000000 700.000000"
 preserveAspectRatio="xMidYMid meet">
<metadata>
Created by potrace 1.14, written by Peter Selinger 2001-2017
</metadata>
<g transform="translate(0.000000,700.000000) scale(0.100000,-0.100000)"
fill="#000000" stroke="none">
<path d="M0 3500 l0 -3500 3500 0 3500 0 0 3500 0 3500 -3500 0 -3500 0 0
-3500z m1820 1144 c33 -18 72 -19 798 -22 760 -2 762 -2 812 19 27 12 66 39
86 61 19 22 37 38 39 36 2 -1 35 -156 74 -343 39 -187 73 -350 76 -362 4 -16
1 -23 -10 -23 -8 0 -15 4 -15 9 0 5 -35 57 -77 117 -92 130 -223 266 -312 323
-164 106 -371 109 -445 8 -21 -28 -21 -36 -24 -1155 -3 -1239 -6 -1173 58
-1261 16 -22 52 -57 80 -78 27 -20 50 -41 50 -45 0 -9 -744 -11 -753 -2 -4 4
17 24 46 44 62 45 114 114 133 177 12 38 14 242 14 1152 l0 1107 -22 44 c-36
71 -87 92 -209 88 -91 -3 -102 -6 -185 -47 -77 -38 -104 -59 -199 -155 -70
-70 -138 -151 -183 -218 -62 -91 -92 -125 -92 -103 0 2 34 165 75 362 41 196
75 359 75 362 0 2 17 -14 38 -36 20 -22 53 -49 72 -59z m2610 -32 c0 -5 -17
-18 -39 -30 -50 -29 -108 -93 -135 -151 l-21 -46 0 -1080 c0 -1038 1 -1082 19
-1129 27 -69 86 -131 149 -154 161 -60 409 -21 594 93 98 61 256 218 343 343
64 92 87 112 77 70 -3 -13 -35 -174 -72 -358 -36 -184 -68 -341 -71 -349 -3
-9 -18 -1 -48 27 -80 74 -60 72 -858 72 -389 0 -708 3 -708 8 1 4 26 23 57 42
58 37 103 92 131 162 16 39 17 130 20 1093 2 702 -1 1073 -8 1118 -17 112 -70
193 -155 238 -25 13 -45 27 -45 31 0 5 173 8 385 8 212 0 385 -4 385 -8z"/>
</g>
</svg>
